<svg xmlns="http://www.w3.org/2000/svg" class="card" viewBox="-9 -9 423 423">
    <!-- Card frame -->
    <path class="frame" stroke-width="25" transform="matrix(0.75, 0, 0, 0.75, 0, 0)" d="M 40 0 L 497.53 0 C 519.625 0 537.531272 17.909051 537.531272 40 L 537.531272 498.419492 C 537.531272 520.508035 519.625021 538.419494 497.53127 538.419494 L 39.999997 538.419494 C 17.906246 538.419494 -0.00000466667 520.508035 -0.00000466667 498.419492 L -0.00000466667 39.997594 C -0.00000466667 17.909051 17.906246 -0.00240808 39.999997 -0.00240808 Z M 39.999997 -0.00240808"/>
    <!-- Moon circle -->
    <circle class="moon" cx="201.5" cy="201.5" r="121.5"/>
    <!-- Moon phase -->
    <g fill="#e9efff">
        <circle class="phase full-moon" cx="201.5" cy="201.5" r="121.5"/>
        <path class="phase final-quarter" d="M 201.5 80 a 1 1 0 0 0 0 243 Z"/>
        <path class="phase first-quarter" d="M 201.5 323 a 1 1 0 0 0 0 -243 Z"/>
        <path class="phase waxing-crescent" d="M 201.5 323 a 1 1 0 0 0 0 -243 c 85 40 85 203 0 243"/>
        <path class="phase waning-crescent" d="M 201.5 80 a 1 1 0 0 0 0 243 c -85 -40 -85 -203 0 -243"/>
        <path class="phase waxing-gibbous" d="M 201.5 323 a 1 1 0 0 0 0 -243 c -85 40 -85 203 0 243"/>
        <path class="phase waning-gibbous" d="M 201.5 80 a 1 1 0 0 0 0 243 c 85 -40 85 -203 0 -243"/>
    </g>
    <!-- Lunar craters -->
    <g fill="#152864" fill-opacity="0.3">
        <circle cx="229.5" cy="256" r="40"/>
        <circle cx="279" cy="190" r="25"/>
        <circle cx="143" cy="255" r="13"/>
        <circle cx="149" cy="135" r="22"/>
        <circle cx="118" cy="171" r="13"/>
        <circle cx="222" cy="109" r="13"/>
    </g>
    <!-- Left stars -->
    <g class="left stars">
        <path d="M 173.484375 33.234375 C 172.359375 37.960938 171.683594 38.335938 171.085938 38.632812 C 170.410156 38.933594 169.734375 39.160156 168.984375 39.007812 C 167.859375 38.859375 165.984375 37.960938 165.382812 36.910156 C 164.710938 35.859375 164.785156 33.757812 165.085938 32.710938 C 165.382812 31.960938 165.910156 31.433594 166.433594 30.984375 C 167.035156 30.609375 167.632812 30.160156 168.382812 30.160156 C 169.507812 30.085938 172.433594 31.359375 172.433594 31.359375"/>
        <path d="M 123.234375 49.132812 C 122.035156 53.933594 121.359375 54.308594 120.757812 54.609375 C 120.085938 54.910156 119.410156 55.132812 118.660156 54.984375 C 117.535156 54.757812 115.660156 53.859375 115.058594 52.808594 C 114.382812 51.757812 114.460938 49.660156 114.835938 48.609375 C 115.058594 47.859375 115.585938 47.335938 116.109375 46.960938 C 116.710938 46.507812 117.308594 46.132812 118.132812 46.058594 C 119.183594 45.984375 122.109375 47.335938 122.109375 47.335938"/>
        <path d="M 137.484375 70.132812 C 136.285156 74.859375 135.683594 75.234375 135.007812 75.535156 C 134.410156 75.835938 133.660156 76.058594 132.910156 75.910156 C 131.785156 75.757812 129.984375 74.632812 129.308594 73.808594 C 128.859375 73.132812 128.632812 72.535156 128.710938 71.710938 C 128.710938 70.660156 129.609375 68.710938 130.359375 67.882812 C 130.960938 67.359375 131.558594 67.058594 132.382812 67.058594 C 133.433594 66.984375 136.359375 68.257812 136.359375 68.257812"/>
        <path d="M 53.632812 75.160156 C 52.433594 79.960938 51.757812 80.335938 51.160156 80.558594 C 50.484375 80.859375 49.808594 81.085938 49.058594 81.007812 C 47.933594 80.785156 46.058594 79.882812 45.460938 78.835938 C 44.785156 77.785156 44.859375 75.683594 45.234375 74.632812 C 45.460938 73.882812 45.984375 73.359375 46.507812 72.910156 C 47.109375 72.535156 47.710938 72.085938 48.460938 72.085938 C 49.585938 72.007812 52.507812 73.285156 52.507812 73.285156"/>
        <path d="M 91.359375 97.808594 C 90.160156 102.535156 89.558594 102.910156 88.882812 103.210938 C 88.285156 103.507812 87.535156 103.734375 86.785156 103.585938 C 85.734375 103.433594 83.859375 102.308594 83.183594 101.484375 C 82.734375 100.808594 82.507812 100.210938 82.585938 99.382812 C 82.585938 98.335938 83.484375 96.382812 84.234375 95.558594 C 84.835938 95.035156 85.433594 94.734375 86.257812 94.660156 C 87.308594 94.660156 90.234375 95.933594 90.234375 95.933594"/>
        <path d="M 62.859375 137.183594 C 61.660156 141.984375 60.984375 142.359375 60.382812 142.660156 C 59.710938 142.960938 59.035156 143.183594 58.285156 143.035156 C 57.160156 142.808594 55.359375 141.683594 54.683594 140.859375 C 54.234375 140.257812 54.007812 139.585938 54.007812 138.835938 C 54.085938 137.710938 54.984375 135.757812 55.734375 135.007812 C 56.335938 134.410156 56.933594 134.183594 57.683594 134.109375 C 58.808594 134.035156 61.734375 135.382812 61.734375 135.382812"/>
        <path d="M 40.210938 179.109375 C 39.007812 183.910156 38.335938 184.285156 37.734375 184.585938 C 37.132812 184.882812 36.382812 185.109375 35.632812 184.960938 C 34.507812 184.734375 32.710938 183.835938 32.035156 182.785156 C 31.433594 181.734375 31.433594 179.632812 31.808594 178.585938 C 32.035156 177.910156 32.558594 177.382812 33.085938 176.933594 C 33.683594 176.484375 34.285156 176.109375 35.109375 176.035156 C 36.160156 175.960938 39.085938 177.308594 39.085938 177.308594"/>
        <path d="M 59.371094 224.070312 C 59.148438 227.222656 57.871094 228.945312 56.898438 229.472656 C 56.222656 229.921875 55.546875 229.996094 54.796875 229.847656 C 53.746094 229.695312 51.871094 228.570312 51.195312 227.671875 C 50.746094 227.070312 50.523438 226.398438 50.597656 225.648438 C 50.671875 224.597656 51.496094 222.570312 52.320312 221.820312 C 52.847656 221.296875 53.523438 220.996094 54.273438 220.921875 C 55.320312 220.921875 58.246094 222.195312 58.246094 222.195312"/>
        <path d="M 51.910156 269.710938 C 51.757812 272.859375 50.410156 274.585938 49.507812 275.109375 C 48.835938 275.558594 48.160156 275.632812 47.335938 275.558594 C 46.285156 275.335938 44.484375 274.210938 43.808594 273.382812 C 43.285156 272.710938 43.058594 272.109375 43.132812 271.285156 C 43.210938 270.234375 44.109375 268.285156 44.859375 267.460938 C 45.382812 266.933594 46.058594 266.632812 46.808594 266.632812 C 47.933594 266.558594 50.785156 267.835938 50.785156 267.835938"/>
        <path d="M 54.460938 310.808594 C 54.234375 313.960938 52.960938 315.683594 51.984375 316.210938 C 51.308594 316.660156 50.632812 316.734375 49.882812 316.585938 C 48.835938 316.433594 46.960938 315.308594 46.285156 314.484375 C 45.835938 313.808594 45.609375 313.210938 45.683594 312.382812 C 45.683594 311.335938 46.585938 309.382812 47.335938 308.558594 C 47.933594 308.035156 48.535156 307.734375 49.359375 307.734375 C 50.410156 307.660156 53.335938 308.933594 53.335938 308.933594"/>
        <path d="M 91.359375 315.007812 C 91.132812 318.160156 89.785156 319.882812 88.882812 320.410156 C 88.210938 320.859375 87.535156 320.933594 86.785156 320.785156 C 85.734375 320.632812 83.859375 319.507812 83.183594 318.609375 C 82.734375 318.007812 82.507812 317.335938 82.585938 316.585938 C 82.585938 315.535156 83.484375 313.507812 84.234375 312.757812 C 84.835938 312.234375 85.433594 311.933594 86.257812 311.859375 C 87.308594 311.859375 90.234375 313.132812 90.234375 313.132812"/>
        <path d="M 84.609375 354.382812 C 84.460938 357.609375 83.109375 359.257812 82.210938 359.859375 C 81.535156 360.234375 80.859375 360.382812 80.035156 360.234375 C 78.984375 360.007812 77.183594 358.882812 76.507812 358.058594 C 75.984375 357.460938 75.757812 356.785156 75.835938 356.035156 C 75.910156 354.910156 76.808594 352.960938 77.558594 352.210938 C 78.085938 351.609375 78.757812 351.382812 79.507812 351.308594 C 80.632812 351.234375 83.484375 352.585938 83.484375 352.585938"/>
        <path d="M 155.933594 344.335938 C 155.710938 347.484375 154.359375 349.210938 153.460938 349.808594 C 152.785156 350.183594 152.109375 350.335938 151.359375 350.183594 C 150.234375 349.960938 148.433594 348.835938 147.757812 348.007812 C 147.308594 347.410156 147.085938 346.734375 147.160156 345.910156 C 147.160156 344.859375 148.058594 342.910156 148.808594 342.160156 C 149.410156 341.558594 150.007812 341.257812 150.835938 341.257812 C 151.882812 341.183594 154.808594 342.460938 154.808594 342.460938"/>
        <path d="M 155.035156 367.808594 C 154.882812 371.035156 153.535156 372.683594 152.632812 373.285156 C 151.960938 373.660156 151.285156 373.808594 150.535156 373.660156 C 149.410156 373.433594 147.609375 372.308594 146.933594 371.484375 C 146.410156 370.882812 146.257812 370.210938 146.257812 369.382812 C 146.335938 368.335938 147.234375 366.382812 147.984375 365.632812 C 148.585938 365.035156 149.183594 364.734375 149.933594 364.734375 C 151.058594 364.660156 153.984375 365.933594 153.984375 365.933594"/>
        <path d="M 191.933594 347.710938 C 191.785156 350.859375 190.660156 352.585938 189.535156 353.109375 C 188.410156 353.632812 186.308594 353.335938 185.335938 352.882812 C 184.660156 352.585938 184.132812 352.058594 183.835938 351.382812 C 183.382812 350.335938 183.234375 348.234375 183.535156 347.183594 C 183.835938 346.433594 184.359375 345.910156 184.882812 345.460938 C 185.484375 345.085938 186.085938 344.632812 186.835938 344.558594 C 187.960938 344.558594 190.882812 345.835938 190.882812 345.835938"/>
        <path d="M 123.234375 346.808594 C 123.007812 350.035156 121.660156 351.757812 120.757812 352.285156 C 120.085938 352.660156 119.410156 352.808594 118.660156 352.660156 C 117.535156 352.507812 115.734375 351.382812 115.058594 350.484375 C 114.609375 349.882812 114.382812 349.210938 114.382812 348.460938 C 114.460938 347.335938 115.359375 345.382812 116.109375 344.632812 C 116.710938 344.109375 117.308594 343.808594 118.132812 343.734375 C 119.183594 343.660156 122.109375 345.007812 122.109375 345.007812"/>
    </g>
    <!-- Right stars -->
    <g class="right stars">
        <path d="M 216.65625 38.445312 C 215.53125 43.246094 215.003906 43.695312 214.253906 43.921875 C 213.207031 44.222656 211.03125 44.070312 210.054688 43.621094 C 209.304688 43.320312 208.855469 42.722656 208.554688 42.121094 C 208.179688 41.523438 207.804688 40.847656 207.878906 40.097656 C 207.957031 38.972656 208.855469 37.023438 209.605469 36.273438 C 210.128906 35.671875 210.804688 35.445312 211.554688 35.371094 C 212.679688 35.296875 215.53125 36.648438 215.53125 36.648438"/>
        <path d="M 265.855469 38.445312 C 264.730469 43.246094 264.207031 43.695312 263.457031 43.921875 C 262.40625 44.222656 260.230469 44.070312 259.253906 43.621094 C 258.582031 43.320312 258.128906 42.722656 257.753906 42.121094 C 257.378906 41.523438 257.082031 40.847656 257.082031 40.097656 C 257.15625 38.972656 258.054688 37.023438 258.804688 36.273438 C 259.40625 35.671875 260.003906 35.445312 260.753906 35.371094 C 261.878906 35.296875 264.804688 36.648438 264.804688 36.648438"/>
        <path d="M 290.53125 69.871094 C 289.332031 74.597656 288.804688 75.046875 288.054688 75.273438 C 287.003906 75.648438 284.832031 75.496094 283.855469 75.046875 C 283.179688 74.746094 282.730469 74.148438 282.355469 73.546875 C 281.980469 72.945312 281.679688 72.273438 281.679688 71.445312 C 281.753906 70.398438 282.65625 68.445312 283.40625 67.621094 C 284.003906 67.097656 284.605469 66.796875 285.355469 66.796875 C 286.480469 66.722656 289.40625 67.996094 289.40625 67.996094"/>
        <path d="M 332.90625 57.945312 C 331.78125 62.746094 331.253906 63.195312 330.503906 63.421875 C 329.457031 63.722656 327.28125 63.570312 326.304688 63.121094 C 325.554688 62.820312 325.105469 62.222656 324.804688 61.621094 C 324.429688 61.023438 324.054688 60.347656 324.128906 59.597656 C 324.207031 58.472656 325.105469 56.523438 325.855469 55.773438 C 326.378906 55.246094 327.054688 54.945312 327.804688 54.871094 C 328.929688 54.796875 331.78125 56.148438 331.78125 56.148438"/>
        <path d="M 354.128906 38.445312 C 353.003906 43.246094 352.40625 43.695312 351.65625 43.921875 C 350.679688 44.222656 348.503906 44.070312 347.53125 43.621094 C 346.78125 43.320312 346.332031 42.722656 345.957031 42.121094 C 345.65625 41.523438 345.28125 40.847656 345.355469 40.097656 C 345.429688 38.972656 346.332031 37.023438 347.082031 36.273438 C 347.605469 35.671875 348.28125 35.445312 349.03125 35.371094 C 350.082031 35.296875 353.003906 36.648438 353.003906 36.648438"/>
        <path d="M 354.957031 100.398438 C 353.832031 105.195312 353.304688 105.570312 352.554688 105.871094 C 351.503906 106.171875 349.332031 106.023438 348.355469 105.570312 C 347.679688 105.273438 347.230469 104.671875 346.855469 104.070312 C 346.480469 103.472656 346.179688 102.796875 346.179688 101.972656 C 346.253906 100.921875 347.15625 98.972656 347.90625 98.222656 C 348.429688 97.621094 349.105469 97.320312 349.855469 97.320312 C 350.980469 97.246094 353.90625 98.523438 353.90625 98.523438"/>
        <path d="M 362.605469 136.847656 C 361.480469 141.648438 360.878906 142.097656 360.207031 142.320312 C 359.15625 142.621094 356.980469 142.546875 356.003906 142.097656 C 355.253906 141.722656 354.804688 141.121094 354.503906 140.523438 C 354.128906 139.921875 353.753906 139.246094 353.832031 138.496094 C 353.90625 137.371094 354.804688 135.421875 355.554688 134.671875 C 356.082031 134.148438 356.753906 133.847656 357.503906 133.773438 C 358.628906 133.695312 361.480469 135.046875 361.480469 135.046875"/>
        <path d="M 323.605469 120.722656 C 322.40625 125.523438 321.878906 125.972656 321.128906 126.195312 C 320.082031 126.496094 317.980469 126.421875 316.929688 125.972656 C 316.253906 125.597656 315.804688 124.996094 315.429688 124.398438 C 315.054688 123.796875 314.753906 123.121094 314.832031 122.371094 C 314.832031 121.246094 315.730469 119.296875 316.480469 118.546875 C 317.082031 118.023438 317.679688 117.722656 318.503906 117.648438 C 319.554688 117.570312 322.480469 118.921875 322.480469 118.921875"/>
        <path d="M 368.53125 225.121094 C 368.378906 228.347656 367.253906 230.070312 366.128906 230.597656 C 365.003906 231.046875 362.90625 230.746094 361.929688 230.296875 C 361.253906 229.996094 360.730469 229.472656 360.429688 228.796875 C 359.980469 227.820312 359.832031 225.648438 360.128906 224.597656 C 360.429688 223.847656 360.957031 223.320312 361.480469 222.945312 C 362.003906 222.496094 362.679688 222.121094 363.429688 222.046875 C 364.554688 221.972656 367.480469 223.320312 367.480469 223.320312"/>
        <path d="M 346.480469 258.121094 C 342.054688 255.421875 341.753906 254.371094 341.90625 253.398438 C 342.054688 252.195312 343.03125 250.398438 344.082031 249.722656 C 345.207031 249.121094 347.230469 248.972656 348.355469 249.496094 C 349.480469 250.023438 350.753906 251.671875 350.90625 252.871094 C 351.128906 254.148438 350.457031 256.023438 349.554688 256.921875 C 348.65625 257.746094 346.707031 258.347656 345.503906 258.046875 C 344.230469 257.746094 342.730469 256.472656 342.207031 255.273438 C 341.753906 254.148438 342.128906 252.121094 342.65625 251.070312 C 343.179688 250.246094 344.15625 249.648438 344.980469 249.347656 C 345.804688 248.972656 346.707031 248.898438 347.53125 249.046875 C 348.503906 249.195312 349.855469 249.648438 350.53125 250.320312 C 351.28125 251.070312 351.804688 252.273438 351.878906 253.320312 C 351.957031 254.371094 351.582031 255.648438 350.90625 256.472656 C 350.304688 257.222656 348.128906 258.121094 348.128906 258.121094"/>
        <path d="M 358.40625 298.921875 C 358.179688 302.148438 357.054688 303.871094 355.929688 304.398438 C 354.804688 304.921875 352.78125 304.621094 351.730469 304.171875 C 351.054688 303.796875 350.53125 303.347656 350.230469 302.597656 C 349.78125 301.621094 349.628906 299.445312 350.003906 298.472656 C 350.230469 297.722656 350.753906 297.195312 351.28125 296.746094 C 351.878906 296.296875 352.480469 295.921875 353.304688 295.847656 C 354.355469 295.773438 357.28125 297.121094 357.28125 297.121094"/>
        <path d="M 334.554688 310.171875 C 338.90625 312.945312 339.207031 313.996094 339.128906 314.972656 C 338.90625 316.097656 338.003906 317.972656 336.878906 318.570312 C 335.832031 319.246094 333.804688 319.320312 332.679688 318.796875 C 331.554688 318.273438 330.28125 316.695312 330.054688 315.421875 C 329.90625 314.222656 330.503906 312.273438 331.480469 311.445312 C 332.378906 310.546875 334.332031 310.023438 335.53125 310.320312 C 336.730469 310.546875 338.304688 311.898438 338.753906 313.023438 C 339.207031 314.222656 338.90625 316.246094 338.304688 317.296875 C 337.855469 318.121094 336.878906 318.648438 335.980469 319.023438 C 335.230469 319.320312 334.332031 319.472656 333.429688 319.320312 C 332.457031 319.171875 331.179688 318.722656 330.429688 317.972656 C 329.753906 317.296875 329.15625 316.023438 329.082031 315.046875 C 329.082031 313.996094 329.457031 312.722656 330.054688 311.898438 C 330.730469 311.070312 332.90625 310.171875 332.90625 310.171875"/>
        <path d="M 243.128906 365.972656 C 241.78125 361.621094 242.304688 359.671875 243.28125 358.847656 C 244.179688 358.023438 246.207031 357.496094 247.40625 357.796875 C 248.605469 358.097656 250.179688 359.445312 250.554688 360.648438 C 251.003906 361.847656 250.78125 363.871094 250.03125 364.847656 C 249.28125 365.898438 247.480469 366.796875 246.207031 366.796875 C 244.929688 366.722656 243.128906 365.746094 242.457031 364.695312 C 241.78125 363.648438 241.628906 361.621094 242.15625 360.421875 C 242.605469 359.296875 244.332031 358.097656 245.457031 357.796875 C 246.355469 357.496094 247.480469 357.722656 248.304688 358.171875 C 249.128906 358.546875 249.878906 359.296875 250.40625 360.195312 C 251.003906 361.246094 251.832031 362.746094 251.679688 364.023438 C 251.605469 365.296875 250.628906 366.945312 249.65625 367.695312 C 248.832031 368.296875 247.554688 368.597656 246.503906 368.371094 C 245.378906 368.148438 243.128906 365.972656 243.128906 365.972656"/>
        <path d="M 320.230469 353.222656 C 320.003906 356.445312 318.878906 358.171875 317.753906 358.695312 C 316.628906 359.222656 314.53125 358.921875 313.554688 358.472656 C 312.878906 358.097656 312.355469 357.648438 312.054688 356.898438 C 311.605469 355.921875 311.457031 353.820312 311.832031 352.773438 C 312.054688 352.023438 312.582031 351.496094 313.105469 351.046875 C 313.707031 350.597656 314.304688 350.222656 315.054688 350.148438 C 316.179688 350.070312 319.105469 351.421875 319.105469 351.421875"/>
        <path d="M 300.65625 325.246094 C 300.503906 328.472656 299.378906 330.195312 298.253906 330.722656 C 297.128906 331.171875 295.03125 330.871094 294.054688 330.421875 C 293.304688 330.121094 292.855469 329.523438 292.554688 328.921875 C 292.179688 328.320312 291.804688 327.648438 291.878906 326.898438 C 291.957031 325.773438 292.855469 323.820312 293.605469 323.070312 C 294.128906 322.472656 294.804688 322.246094 295.554688 322.171875 C 296.679688 322.097656 299.53125 323.445312 299.53125 323.445312"/>
        <path d="M 349.03125 184.398438 C 348.878906 187.621094 347.753906 189.347656 346.628906 189.871094 C 345.503906 190.320312 343.40625 190.023438 342.429688 189.570312 C 341.679688 189.273438 341.230469 188.746094 340.929688 188.070312 C 340.480469 187.097656 340.332031 184.921875 340.628906 183.871094 C 340.855469 183.121094 341.457031 182.597656 341.980469 182.222656 C 342.503906 181.773438 343.179688 181.320312 343.929688 181.320312 C 345.054688 181.246094 347.90625 182.523438 347.90625 182.523438"/>
    </g>
    <!-- Left beams -->
    <g class="left beams">
        <path d="M 200.230469 26.148438 C 200.003906 70.171875 199.855469 70.472656 199.480469 70.695312 C 199.105469 70.996094 198.355469 71.070312 197.980469 70.921875 C 197.53125 70.695312 197.082031 70.171875 196.929688 69.722656 C 196.855469 69.273438 197.082031 68.523438 197.378906 68.222656 C 197.679688 67.847656 198.429688 67.621094 198.878906 67.695312 C 199.332031 67.773438 199.929688 68.222656 200.082031 68.671875 C 200.304688 69.046875 200.230469 69.796875 200.003906 70.171875 C 199.78125 70.621094 199.105469 71.070312 198.65625 70.996094 C 198.128906 70.921875 197.378906 70.472656 196.929688 69.347656 C 194.90625 64.695312 194.90625 30.722656 196.929688 26.148438 C 197.457031 25.023438 198.207031 24.496094 198.804688 24.570312 C 199.332031 24.570312 200.230469 26.148438 200.230469 26.148438"/>
        <path d="M 33.957031 28.695312 C 56.980469 56.671875 64.332031 63.421875 71.753906 71.746094 C 80.53125 81.570312 98.605469 99.722656 99.730469 104.523438 C 99.957031 105.722656 99.582031 106.546875 99.054688 106.996094 C 98.679688 107.371094 97.707031 107.445312 97.179688 107.371094 C 96.730469 107.222656 96.355469 106.921875 96.054688 106.546875 C 95.832031 106.246094 95.679688 105.722656 95.679688 105.273438 C 95.753906 104.746094 96.207031 103.921875 96.65625 103.546875 C 97.179688 103.246094 98.082031 103.246094 98.605469 103.398438 C 99.054688 103.546875 99.429688 103.921875 99.582031 104.296875 C 99.804688 104.898438 99.582031 106.320312 99.28125 106.847656 C 98.980469 107.222656 98.53125 107.371094 98.082031 107.445312 C 97.480469 107.445312 97.105469 107.296875 96.207031 106.773438 C 92.304688 103.921875 77.753906 84.195312 68.980469 74.371094 C 61.253906 65.671875 53.15625 58.097656 46.480469 50.371094 C 40.628906 43.621094 32.082031 33.945312 30.804688 30.796875 C 30.429688 29.972656 30.429688 29.523438 30.582031 29.070312 C 30.730469 28.621094 31.105469 28.171875 31.554688 28.023438 C 32.082031 27.871094 33.957031 28.695312 33.957031 28.695312"/>
        <path d="M 28.554688 115.695312 C 32.753906 119.070312 34.179688 119.296875 36.429688 120.570312 C 41.679688 123.496094 56.003906 132.722656 61.253906 136.921875 C 63.957031 139.097656 64.855469 140.746094 66.957031 142.398438 C 69.207031 144.121094 72.429688 145.621094 74.15625 147.121094 C 75.355469 148.171875 76.554688 149.222656 76.929688 150.046875 C 77.15625 150.570312 77.230469 151.023438 77.082031 151.398438 C 76.855469 151.921875 76.332031 152.746094 75.730469 152.972656 C 75.207031 153.121094 74.230469 153.046875 73.78125 152.671875 C 73.253906 152.371094 72.804688 151.546875 72.878906 150.945312 C 72.878906 150.347656 73.332031 149.523438 73.78125 149.148438 C 74.304688 148.847656 75.28125 148.773438 75.804688 148.996094 C 76.253906 149.148438 76.628906 149.445312 76.855469 149.898438 C 77.082031 150.496094 77.003906 151.921875 76.480469 152.445312 C 76.03125 152.898438 75.128906 153.121094 73.929688 152.820312 C 70.105469 151.773438 59.082031 140.445312 52.105469 135.421875 C 46.253906 131.148438 39.65625 126.871094 35.230469 124.320312 C 32.457031 122.746094 29.832031 122.070312 28.253906 120.945312 C 27.28125 120.273438 26.605469 119.671875 26.082031 118.921875 C 25.554688 118.171875 24.957031 117.195312 25.03125 116.445312 C 25.179688 115.847656 25.929688 115.023438 26.53125 114.871094 C 27.128906 114.722656 28.554688 115.695312 28.554688 115.695312"/>
        <path d="M 116.90625 373.773438 C 118.855469 367.773438 120.355469 365.296875 122.605469 361.472656 C 127.40625 353.371094 141.582031 329.898438 146.230469 324.046875 C 147.730469 322.097656 148.707031 320.671875 149.753906 320.445312 C 150.429688 320.296875 151.253906 320.746094 151.554688 321.195312 C 152.003906 321.722656 152.003906 323.148438 151.707031 323.746094 C 151.40625 324.273438 150.582031 324.648438 149.980469 324.648438 C 149.378906 324.648438 148.554688 324.195312 148.253906 323.746094 C 147.878906 323.222656 147.804688 322.320312 148.03125 321.796875 C 148.253906 321.195312 149.003906 320.597656 149.53125 320.523438 C 150.128906 320.371094 151.03125 320.597656 151.40625 321.046875 C 151.855469 321.421875 152.15625 321.945312 152.082031 322.921875 C 151.480469 327.273438 134.980469 349.023438 129.730469 357.421875 C 126.730469 362.148438 124.554688 365.371094 122.90625 368.671875 C 121.707031 371.148438 121.480469 374.371094 120.28125 375.347656 C 119.53125 375.945312 118.332031 376.097656 117.730469 375.796875 C 117.207031 375.496094 116.90625 373.773438 116.90625 373.773438"/>
        <path d="M 200.457031 329.746094 C 200.980469 376.695312 201.878906 376.921875 201.804688 377.597656 C 201.730469 378.121094 201.054688 378.796875 200.53125 379.097656 C 200.15625 379.246094 199.628906 379.320312 199.253906 379.171875 C 198.65625 378.871094 197.832031 377.746094 197.679688 377.148438 C 197.605469 376.695312 197.832031 376.246094 198.128906 375.871094 C 198.503906 375.496094 199.332031 375.046875 199.855469 375.046875 C 200.457031 375.121094 201.207031 375.648438 201.582031 376.023438 C 201.804688 376.398438 201.957031 376.921875 201.878906 377.371094 C 201.730469 377.898438 201.28125 378.722656 200.753906 378.945312 C 200.230469 379.246094 199.40625 379.320312 198.804688 379.023438 C 197.980469 378.496094 197.003906 377.296875 196.480469 375.496094 C 195.207031 371.070312 197.304688 358.246094 197.378906 350.296875 C 197.378906 343.097656 195.582031 332.820312 196.707031 329.746094 C 197.082031 328.695312 197.753906 328.023438 198.355469 327.945312 C 198.878906 327.796875 199.628906 328.171875 199.929688 328.546875 C 200.230469 328.847656 200.457031 329.746094 200.457031 329.746094"/>
        <path d="M 140.378906 25.695312 C 154.855469 54.496094 158.15625 61.996094 160.253906 67.246094 C 161.679688 70.695312 163.929688 74.445312 163.554688 76.097656 C 163.40625 76.847656 162.804688 77.445312 162.28125 77.523438 C 161.753906 77.597656 160.707031 77.148438 160.554688 76.621094 C 160.332031 76.097656 160.855469 74.671875 161.378906 74.445312 C 161.832031 74.296875 163.253906 74.898438 163.480469 75.421875 C 163.707031 75.871094 163.332031 76.996094 162.878906 77.222656 C 162.429688 77.523438 161.457031 77.445312 160.628906 76.773438 C 157.707031 74.371094 153.355469 57.347656 149.53125 48.945312 C 146.15625 41.746094 140.679688 33.347656 139.03125 29.371094 C 138.355469 27.722656 137.679688 26.445312 137.980469 25.695312 C 138.128906 25.246094 138.804688 24.871094 139.179688 24.871094 C 139.554688 24.871094 140.378906 25.695312 140.378906 25.695312"/>
        <path d="M 170.53125 25.996094 C 174.128906 48.046875 174.582031 50.148438 175.707031 53.746094 C 177.355469 58.695312 183.28125 68.371094 182.832031 71.070312 C 182.605469 72.046875 181.707031 72.722656 181.179688 72.796875 C 180.65625 72.796875 179.679688 72.046875 179.605469 71.597656 C 179.53125 70.996094 180.28125 69.648438 180.804688 69.570312 C 181.332031 69.421875 182.679688 70.320312 182.753906 70.921875 C 182.90625 71.371094 182.304688 72.421875 181.855469 72.648438 C 181.40625 72.871094 180.582031 72.796875 179.90625 72.195312 C 177.957031 70.546875 175.40625 62.222656 173.53125 55.921875 C 171.128906 47.597656 166.929688 29.898438 167.832031 26.296875 C 168.128906 25.398438 168.730469 24.871094 169.179688 24.796875 C 169.628906 24.796875 170.53125 25.996094 170.53125 25.996094"/>
        <path d="M 109.707031 25.921875 C 129.429688 67.398438 140.304688 79.171875 140.457031 82.695312 C 140.53125 83.597656 139.929688 84.347656 139.40625 84.570312 C 138.957031 84.722656 137.679688 84.195312 137.457031 83.746094 C 137.230469 83.222656 137.605469 81.871094 138.128906 81.648438 C 138.582031 81.347656 140.082031 81.796875 140.304688 82.320312 C 140.605469 82.773438 140.304688 83.820312 140.003906 84.195312 C 139.707031 84.570312 138.957031 84.722656 138.503906 84.570312 C 138.054688 84.421875 137.378906 83.597656 137.304688 83.070312 C 137.230469 82.621094 137.605469 81.945312 137.980469 81.722656 C 138.28125 81.496094 139.03125 81.347656 139.480469 81.496094 C 139.929688 81.722656 140.53125 82.546875 140.53125 83.070312 C 140.53125 83.523438 139.929688 84.347656 139.40625 84.570312 C 138.957031 84.722656 138.355469 84.570312 137.679688 84.046875 C 135.355469 82.398438 130.707031 74.523438 126.804688 67.621094 C 120.957031 57.195312 107.457031 31.246094 107.457031 26.820312 C 107.457031 25.996094 107.753906 25.546875 108.128906 25.398438 C 108.503906 25.171875 109.707031 25.921875 109.707031 25.921875"/>
        <path d="M 72.65625 26.671875 C 97.480469 60.347656 102.355469 67.320312 105.957031 73.097656 C 108.582031 77.296875 110.003906 80.746094 112.40625 84.496094 C 114.878906 88.246094 120.503906 93.121094 120.730469 95.523438 C 120.878906 96.496094 120.28125 97.472656 119.753906 97.695312 C 119.304688 97.921875 118.105469 97.546875 117.878906 97.097656 C 117.582031 96.648438 117.878906 94.996094 118.332031 94.695312 C 118.78125 94.398438 120.429688 94.847656 120.65625 95.296875 C 120.957031 95.820312 120.429688 97.320312 119.980469 97.621094 C 119.53125 97.921875 118.78125 97.773438 117.957031 97.246094 C 115.78125 95.820312 111.128906 88.246094 108.582031 84.046875 C 106.332031 80.523438 105.429688 77.746094 103.105469 73.921875 C 99.878906 68.445312 95.378906 61.546875 90.582031 54.722656 C 84.804688 46.472656 71.605469 31.773438 70.707031 28.171875 C 70.554688 27.347656 70.707031 26.820312 71.003906 26.523438 C 71.378906 26.296875 72.65625 26.671875 72.65625 26.671875"/>
        <path d="M 32.230469 71.296875 C 33.730469 76.472656 34.253906 77.222656 35.679688 78.945312 C 39.429688 83.597656 52.929688 96.273438 59.003906 103.023438 C 63.128906 107.597656 65.15625 111.121094 69.054688 114.871094 C 73.40625 119.070312 81.65625 124.773438 84.054688 126.796875 C 84.878906 127.546875 85.554688 127.847656 85.554688 128.296875 C 85.628906 128.523438 85.03125 128.820312 85.105469 128.972656 C 85.179688 129.195312 87.054688 128.296875 87.503906 128.671875 C 87.878906 128.972656 88.03125 130.621094 87.65625 131.070312 C 87.28125 131.445312 85.707031 131.445312 85.253906 131.148438 C 84.878906 130.847656 84.730469 130.097656 84.804688 129.648438 C 84.878906 129.195312 85.332031 128.597656 85.78125 128.445312 C 86.15625 128.222656 86.90625 128.296875 87.355469 128.523438 C 87.730469 128.746094 88.03125 129.496094 88.105469 129.871094 C 88.105469 130.246094 88.105469 130.773438 87.804688 130.921875 C 87.128906 131.296875 84.730469 130.621094 82.78125 129.648438 C 78.878906 127.773438 71.90625 122.070312 67.554688 117.722656 C 63.582031 113.746094 61.628906 109.695312 57.429688 104.820312 C 51.28125 97.847656 37.78125 86.148438 33.503906 80.371094 C 31.554688 77.671875 30.429688 75.722656 29.980469 73.921875 C 29.605469 72.722656 29.457031 71.296875 29.90625 70.695312 C 30.128906 70.320312 30.878906 70.097656 31.253906 70.171875 C 31.628906 70.246094 32.230469 71.296875 32.230469 71.296875"/>
        <path d="M 29.679688 150.421875 C 61.03125 168.570312 71.679688 169.847656 74.003906 171.421875 C 74.605469 171.796875 74.832031 172.097656 74.90625 172.546875 C 74.90625 173.070312 74.378906 174.046875 74.003906 174.273438 C 73.554688 174.496094 72.878906 174.421875 72.503906 174.195312 C 72.054688 173.898438 71.679688 172.921875 71.753906 172.398438 C 71.90625 171.945312 72.804688 171.273438 73.332031 171.273438 C 73.78125 171.195312 74.378906 171.570312 74.605469 171.945312 C 74.90625 172.320312 74.980469 172.996094 74.753906 173.445312 C 74.53125 173.898438 74.003906 174.273438 73.105469 174.421875 C 70.253906 174.796875 60.429688 171.570312 53.679688 168.570312 C 45.503906 164.972656 30.355469 156.046875 28.179688 152.898438 C 27.582031 151.996094 27.503906 151.171875 27.730469 150.722656 C 28.03125 150.347656 29.679688 150.421875 29.679688 150.421875"/>
        <path d="M 29.53125 182.445312 C 56.304688 184.773438 70.554688 182.972656 73.332031 184.472656 C 74.082031 184.921875 74.378906 185.523438 74.378906 186.046875 C 74.304688 186.496094 73.628906 187.398438 73.105469 187.472656 C 72.582031 187.546875 71.378906 186.722656 71.304688 186.195312 C 71.15625 185.671875 72.128906 184.472656 72.65625 184.398438 C 73.179688 184.320312 74.304688 185.371094 74.378906 185.898438 C 74.378906 186.347656 73.78125 187.097656 72.804688 187.472656 C 69.503906 188.898438 54.804688 187.847656 46.929688 187.320312 C 40.40625 186.945312 31.179688 186.796875 28.929688 185.296875 C 28.179688 184.847656 27.878906 184.097656 27.957031 183.648438 C 28.105469 183.121094 29.53125 182.445312 29.53125 182.445312"/>
        <path d="M 30.128906 208.695312 C 64.332031 208.695312 70.480469 205.847656 72.804688 206.597656 C 73.707031 206.820312 74.378906 207.722656 74.378906 208.246094 C 74.378906 208.773438 73.179688 209.746094 72.65625 209.746094 C 72.128906 209.671875 71.15625 208.398438 71.230469 207.871094 C 71.304688 207.421875 72.582031 206.523438 73.105469 206.597656 C 73.628906 206.671875 74.378906 207.570312 74.378906 208.023438 C 74.457031 208.546875 73.929688 209.222656 73.332031 209.671875 C 72.28125 210.421875 70.179688 210.796875 68.15625 211.171875 C 65.53125 211.773438 62.753906 211.996094 58.855469 212.222656 C 52.105469 212.523438 35.832031 212.746094 31.40625 211.921875 C 29.980469 211.621094 28.929688 211.398438 28.554688 210.796875 C 28.332031 210.347656 28.554688 209.523438 28.855469 209.148438 C 29.15625 208.847656 30.128906 208.695312 30.128906 208.695312"/>
        <path d="M 28.554688 237.046875 C 66.730469 231.722656 72.503906 228.722656 74.832031 229.171875 C 75.65625 229.320312 76.332031 229.921875 76.40625 230.371094 C 76.554688 230.972656 75.730469 232.398438 75.207031 232.472656 C 74.605469 232.621094 73.253906 231.648438 73.179688 231.121094 C 73.105469 230.597656 74.082031 229.320312 74.605469 229.171875 C 75.054688 229.097656 75.804688 229.398438 76.105469 229.773438 C 76.40625 230.222656 76.554688 231.195312 76.179688 231.796875 C 75.730469 232.621094 74.082031 232.996094 72.207031 233.523438 C 68.457031 234.722656 60.730469 235.996094 54.503906 236.820312 C 47.832031 237.796875 38.003906 237.871094 33.582031 238.621094 C 31.480469 238.996094 30.054688 240.046875 28.929688 239.820312 C 28.332031 239.671875 27.582031 239.070312 27.503906 238.621094 C 27.429688 238.171875 28.554688 237.046875 28.554688 237.046875"/>
        <path d="M 26.753906 272.371094 C 42.730469 261.945312 45.804688 260.148438 50.230469 258.046875 C 56.15625 255.273438 68.003906 249.648438 71.53125 249.570312 C 72.65625 249.496094 73.480469 249.871094 73.855469 250.320312 C 74.082031 250.773438 74.003906 251.523438 73.707031 251.898438 C 73.40625 252.347656 72.355469 252.722656 71.832031 252.648438 C 71.378906 252.570312 70.78125 251.972656 70.707031 251.523438 C 70.554688 250.996094 70.929688 249.945312 71.378906 249.648438 C 71.832031 249.347656 73.03125 249.421875 73.40625 249.796875 C 73.78125 250.171875 74.082031 251.371094 73.480469 252.195312 C 71.605469 255.121094 55.78125 258.496094 47.980469 262.546875 C 40.78125 266.222656 31.253906 274.621094 28.105469 275.070312 C 27.128906 275.222656 26.378906 274.996094 26.15625 274.546875 C 25.855469 274.097656 26.753906 272.371094 26.753906 272.371094"/>
        <path d="M 85.105469 261.273438 C 72.957031 270.496094 57.730469 284.746094 49.628906 292.773438 C 43.628906 298.773438 38.53125 305.371094 34.480469 308.898438 C 32.15625 310.921875 29.980469 313.171875 28.628906 313.171875 C 27.878906 313.246094 27.054688 312.648438 26.90625 312.195312 C 26.679688 311.746094 26.980469 310.546875 27.429688 310.320312 C 27.878906 309.945312 29.457031 310.171875 29.753906 310.621094 C 30.054688 311.070312 29.679688 312.648438 29.230469 312.945312 C 28.929688 313.246094 28.105469 313.246094 27.730469 313.097656 C 27.355469 312.871094 26.832031 312.347656 26.832031 311.820312 C 26.753906 310.996094 27.804688 309.496094 28.855469 308.445312 C 30.355469 306.945312 33.503906 306.046875 35.304688 304.398438 C 37.179688 302.746094 37.480469 301.171875 39.878906 298.546875 C 46.253906 291.648438 69.878906 269.371094 77.457031 263.371094 C 80.378906 260.972656 82.554688 259.023438 84.054688 258.871094 C 84.730469 258.796875 85.40625 259.171875 85.628906 259.546875 C 85.78125 259.996094 85.105469 261.273438 85.105469 261.273438"/>
        <path d="M 95.53125 280.695312 C 78.429688 299.445312 76.40625 302.972656 72.878906 307.097656 C 68.378906 312.347656 61.332031 318.421875 56.679688 323.898438 C 52.707031 328.621094 49.929688 333.347656 46.332031 337.621094 C 42.878906 341.746094 38.980469 346.097656 35.53125 349.171875 C 32.753906 351.648438 29.230469 354.796875 27.429688 355.023438 C 26.605469 355.171875 25.78125 354.796875 25.480469 354.347656 C 25.179688 353.898438 25.253906 352.695312 25.628906 352.398438 C 26.082031 351.945312 27.65625 351.871094 28.03125 352.246094 C 28.480469 352.621094 28.40625 354.273438 28.03125 354.648438 C 27.65625 355.097656 26.457031 355.171875 26.003906 354.871094 C 25.554688 354.496094 25.179688 353.371094 25.554688 352.472656 C 26.15625 350.820312 30.503906 349.246094 33.128906 346.921875 C 36.582031 343.921875 40.554688 339.570312 43.929688 335.597656 C 47.378906 331.546875 49.855469 327.347656 53.753906 322.921875 C 58.554688 317.371094 66.28125 310.847656 70.929688 305.445312 C 74.605469 301.171875 76.480469 297.570312 79.855469 293.523438 C 83.832031 288.796875 90.878906 280.246094 93.429688 278.898438 C 94.253906 278.445312 94.929688 278.371094 95.304688 278.671875 C 95.679688 278.898438 95.53125 280.695312 95.53125 280.695312"/>
        <path d="M 113.457031 300.945312 C 82.78125 331.398438 74.679688 341.148438 67.628906 348.121094 C 62.003906 353.523438 56.003906 357.648438 51.957031 362.070312 C 48.878906 365.523438 46.480469 370.921875 44.679688 371.972656 C 43.929688 372.347656 43.253906 372.421875 42.804688 372.195312 C 42.355469 371.898438 41.753906 370.996094 41.832031 370.472656 C 41.90625 369.945312 42.582031 369.121094 43.105469 368.972656 C 43.554688 368.820312 44.304688 369.046875 44.679688 369.347656 C 45.054688 369.648438 45.355469 370.398438 45.207031 370.847656 C 45.128906 371.371094 44.304688 372.273438 43.78125 372.347656 C 43.253906 372.421875 42.207031 371.746094 41.980469 371.296875 C 41.753906 370.847656 41.832031 370.097656 42.128906 369.722656 C 42.355469 369.273438 43.03125 368.898438 43.480469 368.898438 C 43.929688 368.898438 44.679688 369.195312 44.90625 369.570312 C 45.207031 370.023438 45.355469 370.773438 45.128906 371.222656 C 44.980469 371.671875 44.15625 372.273438 43.628906 372.347656 C 43.105469 372.347656 42.207031 371.746094 41.980469 371.296875 C 41.753906 370.847656 41.832031 370.398438 42.054688 369.722656 C 42.878906 367.621094 46.929688 363.195312 50.832031 358.996094 C 57.582031 351.796875 70.40625 341.296875 80.082031 331.773438 C 90.207031 321.796875 105.503906 304.398438 110.15625 300.496094 C 111.355469 299.445312 112.03125 298.695312 112.707031 298.773438 C 113.15625 298.773438 113.679688 299.222656 113.832031 299.597656 C 113.980469 299.972656 113.457031 300.945312 113.457031 300.945312"/>
        <path d="M 130.332031 312.570312 C 111.957031 331.398438 108.582031 336.945312 103.78125 342.273438 C 98.53125 348.121094 90.730469 355.546875 85.929688 359.746094 C 82.929688 362.371094 80.53125 363.347656 78.355469 365.671875 C 76.179688 367.921875 74.378906 372.347656 72.957031 373.320312 C 72.429688 373.773438 71.90625 373.921875 71.457031 373.773438 C 70.929688 373.546875 70.105469 372.273438 70.179688 371.671875 C 70.253906 371.222656 70.78125 370.695312 71.230469 370.546875 C 71.679688 370.398438 72.503906 370.472656 72.804688 370.773438 C 73.179688 371.222656 73.40625 372.722656 73.105469 373.171875 C 72.804688 373.621094 71.605469 373.847656 71.082031 373.621094 C 70.628906 373.472656 70.105469 372.648438 70.105469 371.898438 C 70.179688 370.398438 71.90625 368.070312 74.003906 365.597656 C 78.28125 360.421875 90.355469 351.871094 97.332031 344.746094 C 103.707031 338.148438 109.179688 330.421875 114.582031 324.496094 C 119.003906 319.695312 124.554688 313.847656 127.179688 311.746094 C 128.230469 310.921875 128.90625 310.171875 129.582031 310.246094 C 130.03125 310.246094 130.554688 310.921875 130.707031 311.296875 C 130.78125 311.671875 130.332031 312.570312 130.332031 312.570312"/>
        <path d="M 174.804688 329.597656 C 170.605469 336.046875 169.253906 339.347656 167.53125 343.472656 C 164.753906 350.296875 160.253906 365.523438 157.554688 370.695312 C 156.429688 372.945312 155.53125 374.972656 154.480469 375.273438 C 153.878906 375.421875 152.90625 374.898438 152.605469 374.523438 C 152.304688 374.070312 152.304688 373.320312 152.53125 372.945312 C 152.832031 372.421875 154.332031 371.898438 154.855469 372.195312 C 155.304688 372.421875 155.679688 373.996094 155.457031 374.523438 C 155.230469 374.972656 154.03125 375.421875 153.582031 375.273438 C 153.054688 375.046875 152.457031 374.070312 152.457031 373.097656 C 152.457031 371.148438 155.457031 367.847656 157.105469 364.171875 C 159.582031 358.546875 162.429688 348.648438 165.054688 342.347656 C 167.230469 337.398438 169.628906 331.621094 171.429688 329.296875 C 172.332031 328.246094 173.15625 327.347656 173.832031 327.347656 C 174.28125 327.347656 174.957031 327.945312 175.105469 328.320312 C 175.179688 328.695312 174.804688 329.597656 174.804688 329.597656"/>
    </g>
    <!-- Right beams -->
    <g class="right beams">
        <path d="M 215.625 27.523438 C 215.625 71.476562 215.398438 71.773438 214.949219 72.074219 C 214.574219 72.375 213.675781 72.523438 213.148438 72.300781 C 212.699219 72.074219 212.101562 71.476562 212.023438 70.949219 C 211.875 70.425781 212.101562 69.601562 212.476562 69.226562 C 212.851562 68.773438 213.675781 68.550781 214.199219 68.625 C 214.726562 68.699219 215.398438 69.226562 215.625 69.675781 C 215.851562 70.199219 215.851562 71.023438 215.550781 71.476562 C 215.25 72 214.5 72.375 213.976562 72.449219 C 213.601562 72.523438 213.148438 72.375 212.851562 72.074219 C 212.398438 71.773438 212.175781 71.476562 211.949219 70.5 C 210.824219 65.925781 210.449219 32.175781 212.175781 27.523438 C 212.625 26.398438 213.148438 25.875 213.675781 25.800781 C 214.273438 25.800781 215.625 27.523438 215.625 27.523438"/>
        <path d="M 293.175781 111.449219 C 333.824219 76.574219 335.625 74.550781 339.226562 70.648438 C 343.949219 65.550781 350.101562 58.949219 355.125 52.726562 C 360.148438 46.5 365.851562 36.449219 369.226562 33.074219 C 370.726562 31.648438 371.925781 30.523438 372.898438 30.523438 C 373.5 30.523438 374.101562 31.125 374.324219 31.648438 C 374.550781 32.101562 374.476562 33 374.25 33.449219 C 373.949219 33.898438 373.199219 34.351562 372.675781 34.351562 C 372.148438 34.425781 371.324219 34.050781 371.023438 33.601562 C 370.726562 33.148438 370.574219 32.324219 370.726562 31.800781 C 370.800781 31.425781 371.101562 30.976562 371.476562 30.824219 C 372 30.601562 373.351562 30.523438 373.800781 30.976562 C 374.324219 31.351562 374.550781 32.175781 374.324219 33.226562 C 373.273438 37.574219 358.949219 53.476562 351.675781 61.875 C 345.375 69 340.800781 73.875 333.449219 80.925781 C 323.25 90.675781 300.601562 112.351562 295.351562 114.226562 C 294.300781 114.601562 293.550781 114.375 293.101562 114.074219 C 292.726562 113.851562 292.574219 113.324219 292.574219 112.949219 C 292.574219 112.5 293.175781 111.449219 293.175781 111.449219"/>
        <path d="M 330.226562 198 C 357.675781 198.523438 370.949219 195.300781 373.800781 196.574219 C 374.550781 196.949219 374.925781 197.699219 374.925781 198.226562 C 374.925781 198.75 374.175781 199.648438 373.648438 199.726562 C 373.125 199.875 371.773438 198.976562 371.625 198.449219 C 371.550781 197.925781 372.523438 196.574219 373.050781 196.5 C 373.574219 196.425781 374.851562 197.476562 374.925781 198 C 374.925781 198.601562 374.324219 199.273438 373.273438 199.800781 C 369.449219 201.675781 349.050781 201.824219 341.101562 201.824219 C 336.375 201.824219 331.648438 202.125 329.851562 201.148438 C 329.101562 200.699219 328.574219 199.875 328.648438 199.351562 C 328.726562 198.824219 330.226562 198 330.226562 198"/>
        <path d="M 298.273438 288.300781 C 312.375 302.699219 316.648438 308.476562 323.175781 315.449219 C 333.523438 326.324219 355.875 346.875 364.875 356.175781 C 369.375 360.824219 372.898438 364.050781 374.773438 366.824219 C 375.824219 368.324219 376.726562 369.75 376.574219 370.648438 C 376.5 371.324219 375.898438 371.851562 375.375 372.074219 C 374.851562 372.226562 373.949219 372.148438 373.574219 371.773438 C 373.125 371.476562 372.75 370.648438 372.75 370.199219 C 372.675781 369.75 372.898438 369.300781 373.125 369 C 373.425781 368.699219 373.800781 368.398438 374.175781 368.324219 C 374.699219 368.25 375.601562 368.476562 375.976562 368.773438 C 376.351562 369 376.574219 369.449219 376.574219 369.824219 C 376.648438 370.351562 376.425781 371.175781 376.050781 371.625 C 375.824219 371.925781 375.375 372.148438 374.925781 372.148438 C 374.476562 372.148438 373.875 372 373.199219 371.550781 C 371.773438 370.425781 370.726562 367.425781 367.800781 364.050781 C 360 354.976562 333.976562 330.824219 320.773438 317.398438 C 311.023438 307.425781 297.300781 295.351562 295.648438 291 C 295.199219 289.875 295.351562 288.976562 295.726562 288.523438 C 296.175781 288.074219 298.273438 288.300781 298.273438 288.300781"/>
        <path d="M 218.550781 329.324219 C 218.476562 358.5 223.199219 372.824219 222.300781 376.574219 C 222 377.699219 221.324219 378.226562 220.800781 378.523438 C 220.425781 378.675781 219.898438 378.675781 219.523438 378.449219 C 219.074219 378.226562 218.398438 377.550781 218.25 377.023438 C 218.175781 376.574219 218.175781 376.125 218.398438 375.75 C 218.625 375.300781 219.375 374.625 219.898438 374.550781 C 220.425781 374.476562 221.324219 374.773438 221.699219 375.148438 C 222.074219 375.523438 222.375 376.425781 222.226562 376.949219 C 222.074219 377.625 221.023438 378.523438 220.351562 378.601562 C 219.75 378.601562 218.925781 378.226562 218.324219 377.25 C 216.300781 374.023438 214.648438 358.800781 214.125 350.324219 C 213.675781 342.75 213.375 331.726562 214.949219 328.875 C 215.476562 327.898438 216.300781 327.375 216.976562 327.449219 C 217.574219 327.523438 218.550781 329.324219 218.550781 329.324219"/>
        <path d="M 256.726562 81 C 268.050781 56.175781 272.625 42.375 275.851562 35.25 C 277.800781 31.050781 279.449219 26.398438 281.101562 25.351562 C 281.925781 24.824219 282.976562 24.898438 283.425781 25.273438 C 283.875 25.726562 284.101562 27.449219 283.726562 27.976562 C 283.425781 28.5 282.074219 28.726562 281.550781 28.5 C 281.023438 28.351562 280.574219 27.675781 280.425781 27.148438 C 280.351562 26.625 280.574219 25.800781 280.949219 25.425781 C 281.476562 25.050781 282.75 24.898438 283.273438 25.199219 C 283.726562 25.5 284.175781 26.324219 284.101562 27.300781 C 284.023438 29.25 281.25 32.25 279.226562 36.601562 C 274.800781 46.050781 262.5 78.976562 259.949219 82.574219 C 259.5 83.175781 259.351562 83.324219 258.976562 83.476562 C 258.523438 83.625 257.699219 83.625 257.324219 83.324219 C 256.875 82.875 256.726562 81 256.726562 81"/>
        <path d="M 323.773438 153.300781 C 333.449219 142.875 337.949219 138.75 342 135.675781 C 345.824219 132.75 349.726562 130.875 353.773438 128.023438 C 358.199219 124.875 364.574219 118.125 367.351562 117.375 C 368.398438 117.148438 369.375 117.300781 369.824219 117.75 C 370.273438 118.273438 370.351562 119.625 370.050781 120.226562 C 369.824219 120.75 369 121.199219 368.476562 121.199219 C 367.875 121.199219 367.050781 120.824219 366.75 120.375 C 366.375 119.925781 366.300781 119.023438 366.375 118.5 C 366.523438 118.125 366.824219 117.675781 367.199219 117.523438 C 367.726562 117.226562 369.148438 117.226562 369.675781 117.601562 C 370.125 118.050781 370.425781 119.175781 370.199219 120 C 369.675781 121.5 367.050781 122.925781 364.5 124.949219 C 359.773438 128.625 349.199219 135.300781 343.5 139.800781 C 339.226562 143.101562 335.925781 145.949219 332.925781 148.875 C 330.449219 151.273438 328.351562 155.175781 326.550781 155.925781 C 325.574219 156.300781 324.449219 156.226562 324 155.851562 C 323.550781 155.398438 323.773438 153.300781 323.773438 153.300781"/>
        <path d="M 326.398438 245.925781 C 339.601562 254.476562 344.476562 256.574219 349.273438 258.601562 C 354.226562 260.699219 360.75 263.101562 364.949219 264.375 C 367.726562 265.273438 370.800781 265.425781 372 266.101562 C 372.523438 266.398438 372.824219 266.625 372.976562 267 C 373.199219 267.523438 373.199219 268.425781 372.976562 268.949219 C 372.675781 269.398438 371.925781 269.925781 371.398438 270 C 370.949219 270.074219 370.425781 269.925781 370.125 269.699219 C 369.75 269.550781 369.375 269.175781 369.226562 268.726562 C 369.074219 268.199219 369.148438 267.300781 369.449219 266.851562 C 369.75 266.324219 370.648438 265.949219 371.175781 265.875 C 371.625 265.875 372.074219 266.023438 372.375 266.324219 C 372.824219 266.773438 373.273438 268.125 373.050781 268.726562 C 372.824219 269.324219 371.925781 269.851562 370.949219 270 C 368.773438 270.300781 363.976562 268.425781 360.148438 267.226562 C 355.726562 265.726562 350.625 263.625 346.050781 261.601562 C 341.476562 259.5 336.449219 257.175781 332.550781 254.851562 C 329.398438 252.976562 325.425781 250.875 324.226562 249.148438 C 323.625 248.25 323.398438 247.273438 323.625 246.675781 C 323.773438 246.148438 324.523438 245.699219 325.050781 245.625 C 325.5 245.476562 326.398438 245.925781 326.398438 245.925781"/>
        <path d="M 266.175781 322.5 C 276.523438 340.273438 278.476562 344.851562 280.273438 349.949219 C 282.148438 355.5 283.199219 363.148438 284.851562 367.800781 C 286.050781 371.023438 288.523438 374.023438 288.523438 375.75 C 288.523438 376.5 288.148438 377.101562 287.773438 377.476562 C 287.476562 377.699219 286.949219 377.925781 286.574219 377.851562 C 285.976562 377.773438 284.851562 376.949219 284.625 376.425781 C 284.398438 376.050781 284.476562 375.523438 284.625 375.148438 C 284.851562 374.625 285.601562 374.023438 286.050781 373.875 C 286.5 373.800781 286.949219 373.800781 287.324219 374.023438 C 287.851562 374.25 288.449219 374.925781 288.523438 375.523438 C 288.601562 376.125 288 377.398438 287.398438 377.699219 C 286.800781 377.925781 285.75 377.773438 285 377.175781 C 283.648438 376.050781 282.75 372.75 281.625 369.675781 C 280.050781 364.949219 278.625 356.25 276.976562 351.375 C 275.851562 348 274.949219 346.050781 273.523438 342.976562 C 271.726562 339 268.800781 332.925781 266.773438 329.625 C 265.425781 327.375 263.175781 325.875 262.949219 324.449219 C 262.800781 323.550781 263.175781 322.425781 263.699219 322.050781 C 264.226562 321.75 266.175781 322.5 266.175781 322.5"/>
        <path d="M 235.050781 72.601562 C 236.023438 65.476562 237.226562 64.050781 238.199219 61.273438 C 240.148438 55.800781 243.226562 42.601562 245.25 36.523438 C 246.449219 32.925781 247.351562 29.101562 248.625 27.976562 C 249.148438 27.449219 249.976562 27.300781 250.425781 27.449219 C 250.875 27.523438 251.324219 28.125 251.398438 28.574219 C 251.476562 28.949219 251.324219 29.699219 251.023438 30 C 250.726562 30.300781 250.050781 30.601562 249.601562 30.449219 C 249.148438 30.375 248.398438 29.625 248.324219 29.101562 C 248.175781 28.648438 248.476562 27.976562 248.851562 27.75 C 249.148438 27.449219 249.824219 27.226562 250.273438 27.375 C 250.726562 27.523438 251.324219 27.976562 251.476562 28.875 C 252.148438 33.148438 239.550781 61.199219 238.199219 68.023438 C 237.75 70.425781 238.425781 72 237.824219 72.976562 C 237.523438 73.574219 236.773438 74.101562 236.324219 74.023438 C 235.800781 74.023438 235.050781 72.601562 235.050781 72.601562"/>
        <path d="M 278.851562 92.550781 C 284.101562 82.875 288.675781 79.351562 292.273438 74.773438 C 296.925781 68.925781 301.425781 60.449219 306.601562 53.699219 C 311.773438 46.949219 320.773438 38.773438 323.25 34.273438 C 324.375 32.175781 324 30.074219 324.75 29.25 C 325.125 28.800781 325.726562 28.648438 326.175781 28.648438 C 326.625 28.726562 327.300781 29.175781 327.449219 29.550781 C 327.675781 29.925781 327.675781 30.675781 327.449219 31.125 C 327.300781 31.5 326.625 31.949219 326.175781 31.949219 C 325.726562 32.023438 325.050781 31.726562 324.75 31.425781 C 324.449219 31.050781 324.300781 30.300781 324.449219 29.851562 C 324.601562 29.398438 325.5 28.726562 326.023438 28.648438 C 326.476562 28.648438 327.148438 28.949219 327.375 29.398438 C 327.75 30.148438 327.148438 32.101562 326.625 33.601562 C 325.875 35.476562 324.75 37.351562 323.023438 39.75 C 320.023438 43.875 313.351562 49.800781 309.074219 55.273438 C 304.875 60.824219 301.800781 67.351562 297.523438 72.75 C 293.476562 78.074219 286.949219 83.324219 284.25 87.449219 C 282.675781 89.851562 282.449219 93 281.324219 93.898438 C 280.800781 94.351562 279.898438 94.574219 279.523438 94.351562 C 279.074219 94.125 278.851562 92.550781 278.851562 92.550781"/>
        <path d="M 312.675781 129.300781 C 326.398438 118.949219 333.074219 113.175781 337.199219 109.125 C 340.273438 106.199219 341.699219 104.101562 344.851562 101.101562 C 349.425781 96.824219 357.976562 91.050781 362.550781 86.625 C 365.851562 83.398438 368.476562 77.925781 370.5 77.476562 C 371.324219 77.25 372.449219 77.851562 372.675781 78.375 C 372.898438 78.824219 372.601562 80.023438 372.148438 80.324219 C 371.625 80.625 370.050781 80.324219 369.75 79.875 C 369.449219 79.425781 369.824219 77.851562 370.273438 77.550781 C 370.726562 77.25 371.925781 77.398438 372.300781 77.773438 C 372.675781 78.148438 372.898438 78.898438 372.601562 79.800781 C 371.851562 82.125 366 87.601562 362.023438 91.273438 C 357.601562 95.398438 351.300781 99.449219 347.25 103.050781 C 344.101562 105.75 342.75 107.625 339.449219 110.625 C 333.75 115.800781 320.25 127.648438 316.050781 130.351562 C 314.699219 131.25 313.800781 131.851562 313.050781 131.773438 C 312.601562 131.699219 312.074219 131.101562 312 130.726562 C 311.925781 130.273438 312.675781 129.300781 312.675781 129.300781"/>
        <path d="M 330.226562 173.550781 C 339.449219 173.101562 341.324219 172.351562 344.625 170.925781 C 351 168.226562 368.398438 157.125 371.773438 157.050781 C 372.523438 157.050781 372.898438 157.273438 373.125 157.648438 C 373.425781 158.101562 373.5 159.300781 373.125 159.675781 C 372.75 160.050781 371.25 160.199219 370.800781 159.898438 C 370.425781 159.675781 370.199219 158.925781 370.199219 158.476562 C 370.273438 158.023438 370.648438 157.425781 371.101562 157.199219 C 371.550781 157.050781 372.675781 157.125 373.050781 157.574219 C 373.425781 157.949219 373.574219 158.851562 373.273438 159.523438 C 372.601562 160.800781 369.898438 162 366.976562 163.574219 C 361.050781 166.726562 346.351562 174.148438 339.449219 175.800781 C 335.550781 176.699219 331.425781 176.925781 329.925781 176.175781 C 329.25 175.875 328.875 175.199219 328.875 174.75 C 328.949219 174.300781 330.226562 173.550781 330.226562 173.550781"/>
        <path d="M 332.398438 223.726562 C 338.550781 226.648438 341.175781 226.949219 344.851562 227.476562 C 351.300781 228.523438 368.851562 228.449219 371.699219 230.550781 C 372.449219 231.148438 372.75 232.125 372.601562 232.574219 C 372.449219 233.023438 371.476562 233.550781 370.949219 233.550781 C 370.5 233.550781 369.976562 233.101562 369.75 232.726562 C 369.601562 232.351562 369.523438 231.601562 369.824219 231.226562 C 370.125 230.851562 371.476562 230.476562 372 230.699219 C 372.375 230.925781 372.75 231.976562 372.601562 232.425781 C 372.523438 232.949219 372 233.324219 371.101562 233.550781 C 367.726562 234.449219 351.148438 231.375 344.101562 230.101562 C 339.523438 229.273438 335.324219 228.601562 333 227.324219 C 331.648438 226.648438 330.375 225.75 330.226562 225.074219 C 330.148438 224.625 330.449219 224.023438 330.75 223.800781 C 331.125 223.574219 332.398438 223.726562 332.398438 223.726562"/>
        <path d="M 313.875 272.25 C 331.5 282.976562 344.175781 294.824219 352.273438 300.601562 C 358.050781 304.726562 363.976562 307.425781 367.800781 310.199219 C 370.125 312 372.675781 313.800781 373.273438 315.074219 C 373.5 315.675781 373.5 316.199219 373.351562 316.648438 C 373.125 317.023438 372.523438 317.476562 372.074219 317.550781 C 371.550781 317.550781 370.648438 317.023438 370.351562 316.574219 C 370.125 316.199219 370.273438 315.449219 370.5 315.074219 C 370.726562 314.699219 371.324219 314.25 371.773438 314.324219 C 372.300781 314.324219 373.199219 314.925781 373.425781 315.449219 C 373.574219 315.824219 373.425781 316.574219 373.125 316.949219 C 372.75 317.324219 372 317.625 371.25 317.398438 C 369.75 317.023438 368.101562 314.101562 365.699219 312.300781 C 361.875 309.375 355.949219 306.824219 350.175781 302.773438 C 342.226562 297.074219 329.925781 285.300781 322.800781 280.5 C 318.675781 277.726562 313.726562 276.449219 312.449219 274.800781 C 312 274.125 311.851562 273.300781 312.074219 272.925781 C 312.300781 272.476562 313.875 272.25 313.875 272.25"/>
        <path d="M 285.675781 309.148438 C 289.273438 317.773438 290.550781 319.5 292.648438 322.351562 C 296.550781 327.523438 304.351562 335.851562 310.050781 343.648438 C 316.425781 352.574219 328.574219 368.925781 328.949219 373.125 C 329.023438 374.175781 328.5 375 327.976562 375.226562 C 327.523438 375.449219 326.398438 375.074219 326.101562 374.699219 C 325.800781 374.175781 326.101562 372.675781 326.550781 372.375 C 327 372.074219 328.5 372.523438 328.875 372.976562 C 329.101562 373.351562 329.101562 374.101562 328.875 374.476562 C 328.574219 374.925781 327.75 375.449219 327.074219 375.300781 C 326.101562 375.074219 325.125 373.273438 323.625 371.25 C 320.175781 366.449219 312.449219 351.976562 307.949219 345.675781 C 305.023438 341.699219 303.074219 340.125 300.226562 336.449219 C 296.101562 331.125 288.601562 321.523438 285.824219 316.5 C 284.324219 313.726562 282.898438 311.101562 283.125 309.675781 C 283.199219 309 283.726562 308.398438 284.175781 308.25 C 284.550781 308.175781 285.675781 309.148438 285.675781 309.148438"/>
        <path d="M 245.773438 328.574219 C 246.75 345.898438 247.199219 348.75 247.875 350.324219 C 248.25 351.226562 248.773438 351.375 249.074219 352.273438 C 249.675781 353.925781 249.449219 357.675781 249.976562 360.074219 C 250.5 362.101562 251.476562 363.675781 252 365.773438 C 252.523438 368.101562 253.425781 371.925781 252.898438 373.574219 C 252.675781 374.476562 251.925781 375.375 251.398438 375.375 C 250.800781 375.449219 249.601562 374.324219 249.601562 373.726562 C 249.601562 373.199219 250.800781 372.074219 251.324219 372.074219 C 251.925781 372.148438 252.898438 373.351562 252.898438 373.875 C 252.898438 374.398438 252.074219 375.300781 251.550781 375.375 C 251.023438 375.449219 250.199219 375.074219 249.75 374.476562 C 248.851562 373.125 249.449219 369.675781 248.851562 366.226562 C 247.875 360.449219 244.273438 350.101562 243.375 343.199219 C 242.550781 337.726562 241.726562 330.375 242.773438 328.273438 C 243.148438 327.449219 243.898438 327.074219 244.425781 327.074219 C 244.875 327.148438 245.773438 328.574219 245.773438 328.574219"/>
    </g>
    <!-- "?" character (for card back) -->
    <path class="question-mark" fill="white" transform="translate(153.440986, 294.877659)" d="M 52.109375 -187.59375 C 60.304688 -187.59375 67.878906 -185.765625 74.828125 -182.109375 C 81.773438 -178.453125 87.296875 -173.375 91.390625 -166.875 C 95.484375 -160.375 97.53125 -153.203125 97.53125 -145.359375 C 97.53125 -135.742188 95.613281 -127.375 91.78125 -120.25 C 87.957031 -113.125 82.394531 -105.109375 75.09375 -96.203125 L 69.484375 -89.25 C 64.128906 -82.300781 60.113281 -75.882812 57.4375 -70 C 54.769531 -64.125 53.4375 -56.554688 53.4375 -47.296875 L 53.4375 -43.5625 L 48.640625 -43.5625 L 48.09375 -52.109375 C 48.09375 -64.578125 51.65625 -78.472656 58.78125 -93.796875 L 61.1875 -98.875 C 65.289062 -107.78125 68.363281 -115.21875 70.40625 -121.1875 C 72.457031 -127.15625 73.484375 -133.789062 73.484375 -141.09375 C 73.484375 -152.488281 70.765625 -161.75 65.328125 -168.875 C 59.898438 -176.007812 53 -179.578125 44.625 -179.578125 C 39.101562 -179.578125 34.113281 -177.703125 29.65625 -173.953125 C 25.207031 -170.210938 22.984375 -166.117188 22.984375 -161.671875 C 22.984375 -159.890625 24.316406 -156.503906 26.984375 -151.515625 C 27.160156 -150.984375 27.960938 -149.332031 29.390625 -146.5625 C 30.816406 -143.800781 31.53125 -141.351562 31.53125 -139.21875 C 31.53125 -136.375 30.503906 -133.835938 28.453125 -131.609375 C 26.410156 -129.378906 24.140625 -128.265625 21.640625 -128.265625 C 17.546875 -128.265625 13.9375 -130.269531 10.8125 -134.28125 C 7.695312 -138.289062 6.140625 -142.878906 6.140625 -148.046875 C 6.140625 -155.171875 8.1875 -161.757812 12.28125 -167.8125 C 16.382812 -173.875 21.953125 -178.6875 28.984375 -182.25 C 36.023438 -185.8125 43.734375 -187.59375 52.109375 -187.59375 Z M 51.578125 -25.921875 C 55.671875 -25.921875 59.140625 -24.492188 61.984375 -21.640625 C 64.835938 -18.796875 66.265625 -15.320312 66.265625 -11.21875 C 66.265625 -7.125 64.835938 -3.609375 61.984375 -0.671875 C 59.140625 2.265625 55.671875 3.734375 51.578125 3.734375 C 47.472656 3.734375 43.953125 2.265625 41.015625 -0.671875 C 38.078125 -3.609375 36.609375 -7.125 36.609375 -11.21875 C 36.609375 -15.320312 38.078125 -18.796875 41.015625 -21.640625 C 43.953125 -24.492188 47.472656 -25.921875 51.578125 -25.921875 Z"/>
</svg>
